<svg width="299" height="36" viewBox="0 0 299 36" fill="none" xmlns="http://www.w3.org/2000/svg">
<path d="M11.416 9.376L15.352 29.68L20.296 4.72C20.712 2.544 21.784 1.456 23.512 1.456C25.336 1.456 26.424 2.416 26.776 4.336L31.576 30.016L35.656 10.096C35.944 8.688 36.088 7.616 36.088 6.88C36.088 5.568 35.416 4.912 34.072 4.912C33.784 4.912 33.368 4.928 32.824 4.96C32.28 4.992 31.864 5.008 31.576 5.008C30.2 5.008 29.512 4.464 29.512 3.376C29.512 2.32 30.184 1.792 31.528 1.792C32.04 1.792 32.568 1.824 33.112 1.888C35.736 2.208 37.464 2.368 38.296 2.368C38.936 2.368 39.88 2.272 41.128 2.08C42.408 1.888 43.368 1.792 44.008 1.792C45.192 1.792 45.784 2.352 45.784 3.472C45.784 4.496 45.208 5.008 44.056 5.008C43.864 5.008 43.576 4.992 43.192 4.96C42.808 4.896 42.52 4.864 42.328 4.864C41.656 4.864 41.16 5.12 40.84 5.632C40.552 6.144 40.2 7.296 39.784 9.088L34.408 31.984C33.992 33.744 33 34.624 31.432 34.624C29.768 34.624 28.728 33.536 28.312 31.36L23.464 5.968L18.136 32.032C17.784 33.76 16.872 34.624 15.4 34.624C13.896 34.624 12.936 33.744 12.52 31.984L6.808 8.08C6.52 6.864 6.152 6.048 5.704 5.632C5.288 5.184 4.616 4.96 3.688 4.96H3.352L2.296 5.056C1.272 5.056 0.76 4.528 0.76 3.472C0.76 2.352 1.32 1.792 2.44 1.792C2.888 1.792 3.4 1.84 3.976 1.936C5.704 2.224 7.384 2.368 9.016 2.368C9.784 2.368 11.544 2.208 14.296 1.888C14.776 1.824 15.24 1.792 15.688 1.792C16.84 1.792 17.416 2.32 17.416 3.376C17.416 4.528 16.712 5.104 15.304 5.104C15.016 5.104 14.568 5.072 13.96 5.008C13.384 4.944 12.952 4.912 12.664 4.912C11.544 4.912 10.984 5.44 10.984 6.496C10.984 6.88 11.032 7.328 11.128 7.84L11.416 9.376ZM59.9605 35.056C55.7045 35.056 52.3285 33.52 49.8325 30.448C47.3685 27.376 46.1365 23.216 46.1365 17.968C46.1365 12.656 47.3845 8.496 49.8805 5.488C52.3765 2.448 55.8165 0.927999 60.2005 0.927999C64.3925 0.927999 67.7205 2.4 70.1845 5.344C72.6805 8.288 73.9285 12.272 73.9285 17.296C73.9285 22.736 72.6645 27.056 70.1365 30.256C67.6405 33.456 64.2485 35.056 59.9605 35.056ZM60.0565 4.384C56.9845 4.384 54.6005 5.568 52.9045 7.936C51.2085 10.304 50.3605 13.632 50.3605 17.92C50.3605 22.272 51.2085 25.648 52.9045 28.048C54.6005 30.416 56.9685 31.6 60.0085 31.6C62.9845 31.6 65.3365 30.368 67.0645 27.904C68.8245 25.408 69.7045 22.032 69.7045 17.776C69.7045 13.488 68.8725 10.192 67.2085 7.888C65.5445 5.552 63.1605 4.384 60.0565 4.384ZM101.542 16.336C100.614 16.784 99.4296 17.168 97.9896 17.488C99.8776 17.84 101.174 18.544 101.878 19.6C102.614 20.656 102.982 22.4 102.982 24.832V27.04C102.95 27.168 102.934 27.36 102.934 27.616C102.934 29.92 103.67 31.072 105.142 31.072C106.646 31.072 107.398 29.696 107.398 26.944C107.398 25.984 107.398 25.504 107.398 25.504L107.35 24.304C107.35 24.304 107.35 24.08 107.35 23.632C107.35 22.704 107.414 22.064 107.542 21.712C107.798 21.168 108.294 20.896 109.03 20.896C110.182 20.896 110.758 21.568 110.758 22.912C110.758 22.944 110.742 23.296 110.71 23.968L110.662 24.976C110.63 25.648 110.614 26.08 110.614 26.272V27.472C110.646 27.664 110.662 27.952 110.662 28.336C110.662 30.192 110.134 31.648 109.078 32.704C108.054 33.728 106.614 34.24 104.758 34.24C100.982 34.24 99.0936 32.336 99.0936 28.528V27.088L99.1416 25.456V24.4C99.1416 22.256 98.7256 20.848 97.8936 20.176C97.0936 19.472 95.4136 19.12 92.8536 19.12H88.3896C87.3656 19.12 86.8536 19.744 86.8536 20.992V24.688C86.8536 27.056 86.8856 28.4 86.9496 28.72C87.2376 30.32 88.0376 31.12 89.3496 31.12C89.7976 31.12 90.1336 31.088 90.3576 31.024C90.9016 30.928 91.3176 30.88 91.6056 30.88C92.6296 30.88 93.1416 31.424 93.1416 32.512C93.1416 33.664 92.4536 34.24 91.0776 34.24C91.0776 34.24 90.8376 34.208 90.3576 34.144L87.7656 33.808C86.7736 33.68 85.8936 33.616 85.1256 33.616C84.1656 33.616 83.0456 33.696 81.7656 33.856L79.4616 34.144C78.9496 34.208 78.7096 34.24 78.7416 34.24C77.3656 34.24 76.6776 33.664 76.6776 32.512C76.6776 31.488 77.1736 30.976 78.1656 30.976C78.3256 30.976 78.7576 31.008 79.4616 31.072C79.8136 31.168 80.1496 31.216 80.4696 31.216C82.1016 31.216 82.9176 30.016 82.9176 27.616V8.368C82.9176 5.968 82.1016 4.768 80.4696 4.768C80.2136 4.768 79.8296 4.816 79.3176 4.912C78.8056 4.976 78.4216 5.008 78.1656 5.008C77.7496 5.008 77.3976 4.864 77.1096 4.576C76.8216 4.256 76.6776 3.888 76.6776 3.472C76.6776 2.352 77.3816 1.792 78.7896 1.792C78.9176 1.792 79.1416 1.808 79.4616 1.84L81.9096 2.08C82.5496 2.144 83.3496 2.176 84.3096 2.176C85.3016 2.176 86.4056 2.144 87.6216 2.08L91.2696 1.888C92.4856 1.824 93.6056 1.792 94.6296 1.792C101.67 1.792 105.19 4.48 105.19 9.856C105.19 13.024 103.974 15.184 101.542 16.336ZM88.2456 15.904H92.7576C95.4456 15.904 97.4616 15.52 98.8056 14.752C100.438 13.824 101.254 12.272 101.254 10.096C101.254 6.448 98.7576 4.624 93.7656 4.624C91.1096 4.624 89.3016 4.832 88.3416 5.248C87.4136 5.632 86.9336 6.416 86.9016 7.6L86.8536 9.136V14.656C86.8536 15.2 86.9496 15.552 87.1416 15.712C87.3336 15.84 87.7016 15.904 88.2456 15.904ZM121.872 17.68L135.408 6.16C135.76 5.872 135.936 5.6 135.936 5.344C135.936 4.992 135.632 4.816 135.024 4.816C134.768 4.816 134.592 4.832 134.496 4.864C133.344 4.992 132.496 5.056 131.952 5.056C130.8 5.056 130.224 4.496 130.224 3.376C130.224 2.32 130.912 1.792 132.288 1.792C133.024 1.792 133.68 1.824 134.256 1.888L136.8 2.176C137.92 2.304 138.768 2.368 139.344 2.368C140.496 2.368 141.92 2.24 143.616 1.984C144.48 1.856 145.12 1.792 145.536 1.792C146.752 1.792 147.36 2.336 147.36 3.424C147.36 4.512 146.8 5.056 145.68 5.056C145.584 5.056 145.424 5.04 145.2 5.008C144.976 5.008 144.8 5.008 144.672 5.008C144.512 4.976 144.272 4.96 143.952 4.96C142.736 4.96 141.648 5.36 140.688 6.16L131.616 13.744C131.232 14.064 131.04 14.352 131.04 14.608C131.04 14.768 131.2 15.04 131.52 15.424L132.24 16.528L139.92 26.992C141.968 29.776 143.504 31.168 144.528 31.168C144.592 31.168 144.688 31.152 144.816 31.12C144.944 31.12 145.024 31.12 145.056 31.12C145.92 31.024 146.448 30.976 146.64 30.976C147.792 30.976 148.368 31.52 148.368 32.608C148.368 33.696 147.744 34.24 146.496 34.24C146.496 34.24 145.696 34.144 144.096 33.952C142.912 33.824 141.568 33.76 140.064 33.76C138.336 33.76 136.528 33.856 134.64 34.048C133.392 34.176 132.688 34.24 132.528 34.24C131.344 34.24 130.752 33.712 130.752 32.656C130.752 31.504 131.376 30.928 132.624 30.928C132.976 30.928 133.472 30.96 134.112 31.024C135.36 31.152 136.08 31.216 136.272 31.216C137.04 31.216 137.424 31.056 137.424 30.736C137.424 30.512 137.28 30.208 136.992 29.824L128.064 17.68C127.872 17.424 127.696 17.296 127.536 17.296C127.408 17.296 127.2 17.424 126.912 17.68L121.872 22.096C121.84 22.672 121.824 23.328 121.824 24.064C121.824 26.848 121.84 28.336 121.872 28.528C122.128 30.352 122.928 31.264 124.272 31.264C124.464 31.264 124.816 31.216 125.328 31.12C125.84 31.024 126.272 30.976 126.624 30.976C127.04 30.976 127.392 31.136 127.68 31.456C127.968 31.744 128.112 32.112 128.112 32.56C128.112 33.68 127.408 34.24 126 34.24C125.936 34.24 125.824 34.24 125.664 34.24C125.536 34.208 125.424 34.192 125.328 34.192L122.64 33.808C121.968 33.712 120.928 33.664 119.52 33.664C118.496 33.664 117.648 33.712 116.976 33.808L114.336 34.192C114.272 34.192 114.176 34.208 114.048 34.24C113.919 34.24 113.824 34.24 113.76 34.24C112.32 34.24 111.6 33.68 111.6 32.56C111.6 31.536 112.096 31.024 113.088 31.024C113.376 31.024 113.808 31.072 114.384 31.168C114.768 31.232 115.104 31.264 115.392 31.264C116.992 31.264 117.792 30.064 117.792 27.664C117.792 27.728 117.808 26.608 117.84 24.304C117.84 24.304 117.84 22.896 117.84 20.08V16.048C117.84 13.2 117.84 11.776 117.84 11.776L117.792 8.416C117.792 6.016 116.992 4.816 115.392 4.816C115.072 4.816 114.736 4.864 114.384 4.96C113.808 5.056 113.376 5.104 113.088 5.104C112.064 5.104 111.552 4.576 111.552 3.52C111.552 2.4 112.272 1.84 113.712 1.84C113.872 1.84 114.08 1.856 114.336 1.888L116.64 2.176C117.664 2.304 118.528 2.368 119.232 2.368C120.096 2.368 121.392 2.272 123.12 2.08C124.848 1.888 125.84 1.792 126.096 1.792C127.44 1.792 128.112 2.352 128.112 3.472C128.112 3.92 127.968 4.304 127.68 4.624C127.392 4.912 127.04 5.056 126.624 5.056C126.304 5.056 125.872 5.008 125.328 4.912C125.104 4.848 124.768 4.816 124.32 4.816C123.2 4.816 122.496 5.216 122.208 6.016C121.92 6.784 121.792 8.688 121.824 11.728L121.872 17.68ZM163.017 0.927999C166.153 0.927999 168.713 1.936 170.697 3.952V3.28C170.697 2.032 171.193 1.408 172.185 1.408C173.273 1.408 173.817 2.096 173.817 3.472V3.76C173.817 3.824 173.769 4.304 173.673 5.2C173.577 6.096 173.529 7.168 173.529 8.416C173.529 8.576 173.561 9.088 173.625 9.952L173.769 11.872C173.801 12.032 173.817 12.256 173.817 12.544C173.817 14.08 173.225 14.848 172.041 14.848C170.793 14.848 170.169 14.208 170.169 12.928C170.169 12.768 170.169 12.688 170.169 12.688L170.265 11.392C170.297 10.944 170.313 10.592 170.313 10.336C170.313 8.416 169.657 6.912 168.345 5.824C167.065 4.736 165.289 4.192 163.017 4.192C160.937 4.192 159.273 4.704 158.025 5.728C156.809 6.752 156.201 8.128 156.201 9.856C156.201 11.872 157.113 13.36 158.937 14.32C159.961 14.832 161.753 15.296 164.313 15.712C168.121 16.32 170.729 17.152 172.137 18.208C174.249 19.776 175.305 22 175.305 24.88C175.305 27.888 174.217 30.336 172.041 32.224C169.897 34.112 167.113 35.056 163.689 35.056C160.041 35.056 157.017 33.904 154.617 31.6C154.617 31.728 154.633 31.872 154.665 32.032C154.665 32.192 154.665 32.288 154.665 32.32C154.729 32.832 154.761 33.168 154.761 33.328C154.761 34.512 154.201 35.104 153.081 35.104C151.865 35.104 151.257 34.432 151.257 33.088C151.257 32.928 151.273 32.8 151.305 32.704L151.497 30.208C151.593 28.96 151.641 28.16 151.641 27.808C151.641 27.168 151.561 26.208 151.401 24.928C151.241 23.648 151.161 22.688 151.161 22.048C151.161 20.608 151.769 19.888 152.985 19.888C154.233 19.888 154.857 20.608 154.857 22.048V22.912C154.825 23.168 154.809 23.536 154.809 24.016C154.809 26.416 155.577 28.32 157.113 29.728C158.649 31.136 160.729 31.84 163.353 31.84C165.785 31.84 167.721 31.264 169.161 30.112C170.601 28.96 171.321 27.392 171.321 25.408C171.321 22.368 169.401 20.512 165.561 19.84L162.825 19.36C160.105 18.88 157.993 18.32 156.489 17.68C155.113 17.072 154.009 16.128 153.177 14.848C152.377 13.536 151.977 12.064 151.977 10.432C151.977 7.616 153.001 5.328 155.049 3.568C157.097 1.808 159.753 0.927999 163.017 0.927999ZM185.152 27.616V8.368C185.152 6 184.336 4.816 182.704 4.816C182.448 4.816 182.112 4.848 181.696 4.912C181.088 5.008 180.656 5.056 180.4 5.056C179.376 5.056 178.864 4.528 178.864 3.472C178.864 2.352 179.568 1.792 180.976 1.792C181.2 1.792 181.44 1.808 181.696 1.84L184.048 2.128C184.816 2.224 185.776 2.272 186.928 2.272C187.728 2.272 188.688 2.224 189.808 2.128C192.432 1.904 194.416 1.792 195.76 1.792C197.808 1.792 199.568 1.952 201.04 2.272C203.152 2.72 204.8 3.712 205.984 5.248C207.2 6.784 207.808 8.64 207.808 10.816C207.808 13.824 206.768 16.128 204.688 17.728C202.64 19.328 199.664 20.128 195.76 20.128H192.352C191.296 20.128 190.672 20.112 190.48 20.08H190.384C189.872 20.08 189.536 20.176 189.376 20.368C189.248 20.528 189.184 20.928 189.184 21.568V22.528C189.184 26.592 189.296 29.056 189.52 29.92C189.776 30.784 190.48 31.216 191.632 31.216C191.984 31.216 192.32 31.168 192.64 31.072C193.344 31.008 193.776 30.976 193.936 30.976C194.928 30.976 195.424 31.488 195.424 32.512C195.424 33.664 194.72 34.24 193.312 34.24C193.312 34.24 193.088 34.208 192.64 34.144L190.24 33.808C189.568 33.712 188.56 33.664 187.216 33.664C186.096 33.664 185.184 33.712 184.48 33.808L181.696 34.192C181.632 34.192 181.536 34.208 181.408 34.24C181.28 34.24 181.168 34.24 181.072 34.24C179.632 34.24 178.912 33.68 178.912 32.56C178.912 32.112 179.056 31.744 179.344 31.456C179.632 31.136 179.984 30.976 180.4 30.976C180.752 30.976 181.184 31.024 181.696 31.12C181.92 31.184 182.256 31.216 182.704 31.216C184.336 31.216 185.152 30.016 185.152 27.616ZM189.52 5.872C189.296 6.192 189.184 7.072 189.184 8.512V15.616C189.184 16.48 189.792 16.976 191.008 17.104C190.912 17.104 191.84 17.104 193.792 17.104C196.064 17.104 197.952 16.928 199.456 16.576C202.304 15.904 203.728 14.032 203.728 10.96C203.728 6.896 201.136 4.864 195.952 4.864C192.112 4.864 189.968 5.2 189.52 5.872ZM229.635 28.576L227.907 23.872C227.715 23.36 227.507 23.04 227.283 22.912C227.091 22.784 226.675 22.72 226.035 22.72H217.491C216.851 22.72 216.403 22.832 216.147 23.056C215.923 23.28 215.619 23.888 215.235 24.88L213.843 28.576C213.715 28.928 213.651 29.264 213.651 29.584C213.651 30.608 214.275 31.12 215.523 31.12C215.843 31.12 216.291 31.088 216.867 31.024C217.475 30.96 217.923 30.928 218.211 30.928C219.523 30.928 220.179 31.488 220.179 32.608C220.179 33.664 219.459 34.192 218.019 34.192C217.763 34.192 217.411 34.16 216.963 34.096L214.563 33.76C214.115 33.696 213.379 33.664 212.355 33.664C211.235 33.664 210.451 33.696 210.003 33.76L207.987 34.048C207.091 34.176 206.435 34.24 206.019 34.24C204.771 34.24 204.147 33.712 204.147 32.656C204.147 31.536 204.755 30.976 205.971 30.976C206.227 30.976 206.419 30.992 206.547 31.024H207.171C208.035 31.024 208.691 30.688 209.139 30.016C209.331 29.76 209.651 29.008 210.099 27.76L219.027 3.616C219.539 2.272 220.547 1.6 222.051 1.6C223.523 1.6 224.499 2.272 224.979 3.616L233.571 27.424C234.115 28.928 234.611 29.92 235.059 30.4C235.507 30.88 236.147 31.12 236.979 31.12C237.235 31.12 237.427 31.104 237.555 31.072C238.451 31.008 238.899 30.976 238.899 30.976C240.115 30.976 240.723 31.488 240.723 32.512C240.723 33.6 240.115 34.144 238.899 34.144C238.547 34.144 238.083 34.112 237.507 34.048C235.491 33.824 233.987 33.712 232.995 33.712C231.811 33.712 229.891 33.84 227.235 34.096C226.563 34.16 226.051 34.192 225.699 34.192C224.419 34.192 223.779 33.648 223.779 32.56C223.779 31.472 224.483 30.928 225.891 30.928C226.179 30.928 226.595 30.96 227.139 31.024C227.715 31.088 228.147 31.12 228.435 31.12C229.491 31.12 230.019 30.688 230.019 29.824C230.019 29.696 229.891 29.28 229.635 28.576ZM226.179 18.784L221.859 5.536L217.443 18.784C217.379 18.976 217.347 19.088 217.347 19.12C217.347 19.408 217.587 19.552 218.067 19.552H225.699C226.083 19.552 226.275 19.424 226.275 19.168C226.275 19.104 226.243 18.976 226.179 18.784ZM255.208 0.927999C258.76 0.927999 261.656 2.288 263.896 5.008L263.848 4.48C263.848 4.32 263.848 4.144 263.848 3.952C263.816 3.76 263.8 3.648 263.8 3.616C263.736 2.912 263.704 2.592 263.704 2.656C263.704 1.568 264.216 1.024 265.24 1.024C266.328 1.024 266.872 1.696 266.872 3.04C266.872 3.296 266.808 4.064 266.68 5.344C266.52 6.944 266.44 8.048 266.44 8.656C266.44 9.52 266.488 10.4 266.584 11.296L266.776 13.12V13.6C266.776 15.04 266.2 15.76 265.048 15.76C263.8 15.76 263.192 15.072 263.224 13.696L263.272 11.968C263.336 9.664 262.616 7.792 261.112 6.352C259.608 4.912 257.64 4.192 255.208 4.192C252.04 4.192 249.56 5.408 247.768 7.84C245.976 10.272 245.08 13.632 245.08 17.92C245.08 22.304 245.992 25.728 247.816 28.192C249.672 30.624 252.248 31.84 255.544 31.84C257.336 31.84 258.936 31.408 260.344 30.544C261.784 29.68 262.792 28.544 263.368 27.136C263.752 26.208 263.944 24.96 263.944 23.392C263.944 21.92 264.552 21.184 265.768 21.184C267.08 21.184 267.736 21.92 267.736 23.392C267.736 26.816 266.552 29.616 264.184 31.792C261.816 33.968 258.76 35.056 255.016 35.056C250.696 35.056 247.24 33.536 244.648 30.496C242.088 27.456 240.808 23.408 240.808 18.352C240.808 13.136 242.12 8.928 244.744 5.728C247.4 2.528 250.888 0.927999 255.208 0.927999ZM276.699 8.368C276.699 6 275.883 4.816 274.251 4.816C273.803 4.816 273.467 4.848 273.243 4.912C272.731 5.008 272.299 5.056 271.947 5.056C271.531 5.056 271.179 4.912 270.891 4.624C270.603 4.304 270.459 3.92 270.459 3.472C270.459 2.352 271.131 1.792 272.475 1.792C272.507 1.792 272.747 1.808 273.195 1.84C277.995 2.16 280.235 2.32 279.915 2.32C280.235 2.32 280.395 2.32 280.395 2.32L291.963 1.984C292.187 1.984 293.019 1.936 294.459 1.84C294.971 1.808 295.435 1.792 295.851 1.792C297.515 1.792 298.347 2.528 298.347 4C298.347 4.256 298.283 5.072 298.155 6.448C298.059 7.472 298.011 8.416 298.011 9.28C298.011 10.4 298.043 11.184 298.107 11.632C298.235 12.56 298.299 13.248 298.299 13.696C298.299 14.912 297.723 15.52 296.571 15.52C295.419 15.52 294.843 14.672 294.843 12.976V10.48C294.843 7.792 294.283 6.208 293.163 5.728C292.331 5.376 290.187 5.2 286.731 5.2C284.459 5.2 283.115 5.248 282.699 5.344C281.323 5.696 280.635 6.656 280.635 8.224V10.384C280.635 10.64 280.635 10.992 280.635 11.44C280.603 11.888 280.587 12.208 280.587 12.4V13.024C280.587 14.304 280.875 15.04 281.451 15.232C281.675 15.296 282.059 15.328 282.603 15.328H284.571C286.587 15.328 287.595 14.64 287.595 13.264C287.595 12.88 287.547 12.384 287.451 11.776C287.355 11.168 287.307 10.624 287.307 10.144C287.307 8.864 287.883 8.224 289.035 8.224C290.187 8.224 290.763 8.912 290.763 10.288C290.763 10.544 290.651 11.536 290.427 13.264C290.235 14.736 290.139 16.032 290.139 17.152C290.139 17.792 290.203 18.928 290.331 20.56C290.363 20.816 290.443 21.376 290.571 22.24C290.667 22.944 290.715 23.504 290.715 23.92C290.715 25.072 290.139 25.648 288.987 25.648C287.867 25.648 287.307 24.976 287.307 23.632C287.307 23.28 287.339 22.768 287.403 22.096C287.499 21.424 287.547 20.912 287.547 20.56C287.547 19.184 286.635 18.496 284.811 18.496H282.651C281.723 18.496 281.147 18.656 280.923 18.976C280.731 19.296 280.635 19.984 280.635 21.04V24.016C280.635 24.528 280.651 25.216 280.683 26.08C280.715 27.136 280.731 27.84 280.731 28.192C280.763 29.472 281.019 30.272 281.499 30.592C281.851 30.816 282.683 30.928 283.995 30.928H290.523C292.411 30.928 293.707 30.656 294.411 30.112C295.115 29.536 295.467 28.48 295.467 26.944C295.467 26.464 295.435 25.76 295.371 24.832C295.339 23.872 295.323 23.152 295.323 22.672C295.323 21.232 295.899 20.512 297.051 20.512C298.267 20.512 298.875 21.248 298.875 22.72C298.875 23.296 298.843 24.176 298.779 25.36C298.715 26.544 298.683 27.424 298.683 28C298.683 28.448 298.699 29.12 298.731 30.016C298.795 30.88 298.827 31.536 298.827 31.984C298.827 33.488 298.091 34.24 296.619 34.24C296.267 34.24 295.707 34.208 294.939 34.144C294.555 34.112 293.851 34.096 292.827 34.096C293.051 34.096 291.803 34.064 289.083 34C286.363 33.936 284.011 33.904 282.027 33.904C279.019 33.904 276.075 34 273.195 34.192C273.067 34.192 272.923 34.208 272.763 34.24C272.603 34.24 272.507 34.24 272.475 34.24C271.131 34.24 270.459 33.664 270.459 32.512C270.459 31.488 270.955 30.976 271.947 30.976C272.107 30.976 272.539 31.008 273.243 31.072C273.595 31.168 273.931 31.216 274.251 31.216C275.883 31.216 276.699 30.016 276.699 27.616V8.368Z" fill="black"/>
</svg>
